<svg xmlns="http://www.w3.org/2000/svg" width="139.936" height="29.603" viewBox="0 0 139.936 29.603"><defs><style>.a{fill:#fff;}</style></defs><path class="a" d="M701.205,671.625a14.8,14.8,0,1,0,14.8,14.8A14.8,14.8,0,0,0,701.205,671.625Zm-7.822,13.6,5.793-5.793-.311-.311a1.5,1.5,0,1,1,2.119-2.12l.311.311.311-.311a1.5,1.5,0,0,1,2.119,2.12l-.311.311,5.793,5.793a1.5,1.5,0,0,1-2.12,2.12l-5.793-5.793-5.793,5.793a1.5,1.5,0,0,1-2.119-2.12Zm17.284,6.39a6.968,6.968,0,0,1-2.952,2.51,6.279,6.279,0,0,1-2.415.5,6.475,6.475,0,0,1-3.047-.8c-.436-.23-.863-.49-1.276-.742-.363-.221-.738-.449-1.116-.656-2.01-1.1-3.762-.7-5.208,1.189-.6.787-.646.8-1.512.345-.394-.206-.787-.411-1.182-.612a.47.47,0,0,1-.263-.273.416.416,0,0,1,.064-.333c1.1-1.826,3.021-4,5.941-3.931a7.551,7.551,0,0,1,4.333,1.545l.108.07a7.075,7.075,0,0,0,2.284,1.124,3.594,3.594,0,0,0,3.706-1.39l.032-.038c.818-.977.876-.989,2.046-.424.18.087.338.155.477.215.36.155.577.249.631.444C711.379,690.591,711.209,690.877,710.667,691.62Z" transform="translate(-686.404 -671.625)"/><g transform="translate(39.556 5.85)"><g transform="translate(0 0)"><path class="a" d="M939.485,725.121a1.341,1.341,0,0,1-.988.4,1.276,1.276,0,0,1-.954-.4,1.361,1.361,0,0,1-.386-.988V710.095a1.358,1.358,0,0,1,1.386-1.386,1.279,1.279,0,0,1,.954.4,1.363,1.363,0,0,1,.386.988v14.038A1.342,1.342,0,0,1,939.485,725.121Z" transform="translate(-937.157 -708.709)"/><path class="a" d="M967.57,714.185a1.067,1.067,0,0,1-.318-.886v-.432a1.031,1.031,0,0,1,.341-.886,2.553,2.553,0,0,1,2.2,0,1.068,1.068,0,0,1,.318.886v.432a1.043,1.043,0,0,1-.329.9,1.984,1.984,0,0,1-1.125.239A1.8,1.8,0,0,1,967.57,714.185Zm2.09,13.482a1.4,1.4,0,0,1-1.954,0,1.362,1.362,0,0,1-.386-.988V717.3a1.362,1.362,0,0,1,.386-.988,1.4,1.4,0,0,1,1.954,0,1.363,1.363,0,0,1,.386.988v9.381A1.363,1.363,0,0,1,969.66,727.667Z" transform="translate(-962.504 -711.255)"/><path class="a" d="M1005.9,713.945a5.66,5.66,0,0,1,2.01,2.238,6.983,6.983,0,0,1,.738,3.248,7.146,7.146,0,0,1-.727,3.26,5.586,5.586,0,0,1-1.988,2.249,5.059,5.059,0,0,1-2.782.806,4.872,4.872,0,0,1-2.056-.443,5.44,5.44,0,0,1-1.6-1.079v.136a1.361,1.361,0,0,1-.386.988,1.305,1.305,0,0,1-.977.4,1.325,1.325,0,0,1-.977-.386,1.352,1.352,0,0,1-.386-1V710.095a1.361,1.361,0,0,1,.386-.988,1.4,1.4,0,0,1,1.954,0,1.362,1.362,0,0,1,.386.988v4.748a4.7,4.7,0,0,1,1.522-1.193,4.353,4.353,0,0,1,2.044-.511A5.2,5.2,0,0,1,1005.9,713.945Zm-.795,8.212a4.459,4.459,0,0,0,.011-5.44,3,3,0,0,0-2.4-1.079,3.032,3.032,0,0,0-2.408,1.079,4,4,0,0,0-.932,2.715,4.048,4.048,0,0,0,.932,2.726,3.179,3.179,0,0,0,4.793,0Z" transform="translate(-987.367 -708.709)"/><path class="a" d="M1088.039,737.175a1.152,1.152,0,0,1,.466.909,1.407,1.407,0,0,1-.363,1.056,1.2,1.2,0,0,1-.863.352,2.265,2.265,0,0,1-.772-.159c-.045-.015-.148-.045-.307-.091a1.854,1.854,0,0,0-.511-.068,2.019,2.019,0,0,0-1.136.364,2.653,2.653,0,0,0-.9,1.1,4.055,4.055,0,0,0-.352,1.76v5.384a1.362,1.362,0,0,1-.386.988,1.4,1.4,0,0,1-1.954,0,1.361,1.361,0,0,1-.386-.988V738.4a1.362,1.362,0,0,1,.386-.988,1.4,1.4,0,0,1,1.954,0,1.363,1.363,0,0,1,.386.988v.3a3.443,3.443,0,0,1,1.5-1.42,4.607,4.607,0,0,1,2.09-.488A1.738,1.738,0,0,1,1088.039,737.175Z" transform="translate(-1057.953 -732.359)"/><path class="a" d="M1142.614,737.175a1.354,1.354,0,0,1,.386,1v9.609a1.363,1.363,0,0,1-.386.988,1.3,1.3,0,0,1-.977.4,1.285,1.285,0,0,1-.965-.386,1.424,1.424,0,0,1-.4-.977,4.926,4.926,0,0,1-3.567,1.59,5.193,5.193,0,0,1-2.839-.806,5.65,5.65,0,0,1-2.01-2.238,6.984,6.984,0,0,1-.738-3.248,7.14,7.14,0,0,1,.727-3.26,5.588,5.588,0,0,1,1.988-2.249,5.061,5.061,0,0,1,2.783-.806,5.263,5.263,0,0,1,2.044.4,5.376,5.376,0,0,1,1.613,1.011v-.023a1.362,1.362,0,0,1,.386-.988,1.3,1.3,0,0,1,.977-.4A1.325,1.325,0,0,1,1142.614,737.175Zm-3.157,8.643a4.007,4.007,0,0,0,.931-2.714,4.05,4.05,0,0,0-.931-2.726,3.179,3.179,0,0,0-4.793,0,4.46,4.46,0,0,0-.011,5.44,3,3,0,0,0,2.4,1.079A3.034,3.034,0,0,0,1139.457,745.818Z" transform="translate(-1100.523 -732.359)"/><path class="a" d="M1224.013,737.391a1.8,1.8,0,0,1,1.181,1.6,1.374,1.374,0,0,1-.3.875.937.937,0,0,1-.772.375,1.447,1.447,0,0,1-.591-.1,2.112,2.112,0,0,1-.443-.272,3.173,3.173,0,0,0-.42-.284,2.859,2.859,0,0,0-.67-.2,3.764,3.764,0,0,0-.716-.091,3.434,3.434,0,0,0-2.669,1.056,3.93,3.93,0,0,0-.965,2.76,3.89,3.89,0,0,0,.977,2.714,3.219,3.219,0,0,0,2.5,1.079,3.867,3.867,0,0,0,1.659-.273,3.081,3.081,0,0,0,.375-.238,2.572,2.572,0,0,1,.443-.261,1.231,1.231,0,0,1,.5-.091,1.152,1.152,0,0,1,.9.363,1.336,1.336,0,0,1,.329.931,1.316,1.316,0,0,1-.636,1.022,4.952,4.952,0,0,1-1.681.761,8.467,8.467,0,0,1-2.226.284,5.753,5.753,0,0,1-3.078-.818,5.5,5.5,0,0,1-2.056-2.26,7.037,7.037,0,0,1-.727-3.214,6.857,6.857,0,0,1,.761-3.271,5.6,5.6,0,0,1,2.124-2.238,5.953,5.953,0,0,1,3.089-.806A6.885,6.885,0,0,1,1224.013,737.391Z" transform="translate(-1171.109 -732.359)"/><path class="a" d="M1294.677,737.175a1.353,1.353,0,0,1,.386,1v9.609a1.362,1.362,0,0,1-.386.988,1.3,1.3,0,0,1-.977.4,1.285,1.285,0,0,1-.965-.386,1.426,1.426,0,0,1-.4-.977,4.926,4.926,0,0,1-3.566,1.59,5.193,5.193,0,0,1-2.839-.806,5.651,5.651,0,0,1-2.011-2.238,6.981,6.981,0,0,1-.738-3.248,7.141,7.141,0,0,1,.727-3.26,5.589,5.589,0,0,1,1.988-2.249,5.062,5.062,0,0,1,2.783-.806,5.262,5.262,0,0,1,2.044.4,5.372,5.372,0,0,1,1.613,1.011v-.023a1.361,1.361,0,0,1,.386-.988,1.3,1.3,0,0,1,.977-.4A1.325,1.325,0,0,1,1294.677,737.175Zm-3.157,8.643a4.007,4.007,0,0,0,.931-2.714,4.05,4.05,0,0,0-.931-2.726,3.179,3.179,0,0,0-4.793,0,4.46,4.46,0,0,0-.011,5.44,3,3,0,0,0,2.4,1.079A3.033,3.033,0,0,0,1291.52,745.818Z" transform="translate(-1228.598 -732.359)"/><path class="a" d="M1388.437,738.163a7.134,7.134,0,0,1,.863,3.8v5.815a1.362,1.362,0,0,1-.386.988,1.4,1.4,0,0,1-1.953,0,1.361,1.361,0,0,1-.386-.988v-5.815a3.445,3.445,0,0,0-.488-1.965,1.927,1.927,0,0,0-1.715-.716,2.6,2.6,0,0,0-1.988.761,2.693,2.693,0,0,0-.715,1.919v5.815a1.363,1.363,0,0,1-.386.988,1.4,1.4,0,0,1-1.953,0,1.36,1.36,0,0,1-.386-.988v-5.815a3.445,3.445,0,0,0-.489-1.965,1.927,1.927,0,0,0-1.715-.716,2.6,2.6,0,0,0-1.988.761,2.693,2.693,0,0,0-.716,1.919v5.815a1.362,1.362,0,0,1-.386.988,1.4,1.4,0,0,1-1.954,0,1.361,1.361,0,0,1-.386-.988V738.4a1.362,1.362,0,0,1,.386-.988,1.4,1.4,0,0,1,1.954,0,1.363,1.363,0,0,1,.386.988v.363a5.55,5.55,0,0,1,1.556-1.4,3.934,3.934,0,0,1,2.1-.579,3.439,3.439,0,0,1,3.657,2.5,5.349,5.349,0,0,1,1.579-1.726,3.959,3.959,0,0,1,2.4-.772A3.382,3.382,0,0,1,1388.437,738.163Z" transform="translate(-1302.822 -732.359)"/><path class="a" d="M1507.3,737.6a5.659,5.659,0,0,1,2.01,2.238,6.985,6.985,0,0,1,.738,3.248,7.145,7.145,0,0,1-.727,3.26,5.584,5.584,0,0,1-1.988,2.249,5.06,5.06,0,0,1-2.783.806,4.87,4.87,0,0,1-2.056-.443,5.45,5.45,0,0,1-1.6-1.079v4.452a1.363,1.363,0,0,1-.386.988,1.3,1.3,0,0,1-.977.4,1.324,1.324,0,0,1-.977-.386,1.352,1.352,0,0,1-.386-1V738.4a1.362,1.362,0,0,1,.386-.988,1.4,1.4,0,0,1,1.954,0,1.363,1.363,0,0,1,.386.988v.091a4.7,4.7,0,0,1,1.522-1.193,4.352,4.352,0,0,1,2.044-.511A5.2,5.2,0,0,1,1507.3,737.6Zm-.795,8.212a4.461,4.461,0,0,0,.011-5.44,3,3,0,0,0-2.4-1.079,3.033,3.033,0,0,0-2.408,1.079,4,4,0,0,0-.931,2.715,4.048,4.048,0,0,0,.931,2.726,3.179,3.179,0,0,0,4.793,0Z" transform="translate(-1409.673 -732.359)"/></g></g></svg>